<svg width="250" height="72" viewBox="0 0 250 72" fill="none" xmlns="http://www.w3.org/2000/svg">
<path d="M80.1615 19.7266V53H74.7037V38.4459H59.0484V53H53.5906V19.7266H59.0484V33.9935H74.7037V19.7266H80.1615ZM85.5272 39.6907C85.5272 37.0416 86.0698 34.6957 87.155 32.653C88.2721 30.6103 89.7722 29.0304 91.6553 27.9133C93.5703 26.7643 95.6768 26.1898 97.9748 26.1898C100.049 26.1898 101.853 26.6047 103.385 27.4346C104.949 28.2325 106.193 29.2379 107.119 30.4507V26.6207H112.625V53H107.119V49.0742C106.193 50.319 104.933 51.3563 103.337 52.1861C101.741 53.016 99.9217 53.4309 97.8791 53.4309C95.613 53.4309 93.5384 52.8564 91.6553 51.7074C89.7722 50.5264 88.2721 48.8987 87.155 46.8241C86.0698 44.7176 85.5272 42.3398 85.5272 39.6907ZM107.119 39.7864C107.119 37.9671 106.736 36.3873 105.97 35.0468C105.236 33.7062 104.262 32.6849 103.05 31.9827C101.837 31.2806 100.528 30.9295 99.1238 30.9295C97.7195 30.9295 96.4109 31.2806 95.198 31.9827C93.9852 32.653 92.9958 33.6584 92.2298 34.9989C91.4957 36.3075 91.1286 37.8714 91.1286 39.6907C91.1286 41.5099 91.4957 43.1058 92.2298 44.4782C92.9958 45.8506 93.9852 46.9039 95.198 47.638C96.4428 48.3401 97.7514 48.6912 99.1238 48.6912C100.528 48.6912 101.837 48.3401 103.05 47.638C104.262 46.9358 105.236 45.9145 105.97 44.5739C106.736 43.2015 107.119 41.6057 107.119 39.7864ZM129.368 53.4309C127.294 53.4309 125.427 53.0638 123.767 52.3297C122.139 51.5637 120.847 50.5424 119.889 49.2657C118.931 47.9571 118.421 46.5049 118.357 44.9091H124.006C124.102 46.0262 124.629 46.9677 125.586 47.7337C126.576 48.4678 127.804 48.8348 129.273 48.8348C130.805 48.8348 131.985 48.5476 132.815 47.9731C133.677 47.3667 134.108 46.6007 134.108 45.6751C134.108 44.6857 133.629 43.9516 132.672 43.4728C131.746 42.9941 130.262 42.4674 128.219 41.8929C126.24 41.3503 124.629 40.8237 123.384 40.313C122.139 39.8024 121.054 39.0204 120.128 37.9671C119.235 36.9139 118.788 35.5255 118.788 33.802C118.788 32.3977 119.203 31.121 120.033 29.972C120.862 28.791 122.043 27.8655 123.575 27.1952C125.139 26.5249 126.927 26.1898 128.937 26.1898C131.938 26.1898 134.347 26.9558 136.167 28.4878C138.018 29.9879 139.007 32.0466 139.135 34.6638H133.677C133.581 33.4828 133.103 32.5413 132.241 31.8391C131.379 31.1369 130.214 30.7858 128.746 30.7858C127.31 30.7858 126.209 31.0571 125.443 31.5997C124.677 32.1423 124.294 32.8604 124.294 33.7541C124.294 34.4563 124.549 35.0468 125.06 35.5255C125.57 36.0043 126.193 36.3873 126.927 36.6745C127.661 36.9298 128.746 37.265 130.182 37.6799C132.097 38.1906 133.661 38.7172 134.874 39.2598C136.119 39.7705 137.188 40.5365 138.082 41.5578C138.975 42.5791 139.438 43.9356 139.47 45.6272C139.47 47.1273 139.055 48.4678 138.225 49.6487C137.395 50.8297 136.214 51.7552 134.682 52.4255C133.182 53.0958 131.411 53.4309 129.368 53.4309ZM159.012 26.1898C161.023 26.1898 162.81 26.6207 164.374 27.4824C165.97 28.3442 167.214 29.6209 168.108 31.3125C169.034 33.0041 169.496 35.0468 169.496 37.4405V53H164.087V38.2544C164.087 35.8925 163.496 34.0892 162.315 32.8445C161.134 31.5678 159.522 30.9295 157.48 30.9295C155.437 30.9295 153.809 31.5678 152.596 32.8445C151.416 34.0892 150.825 35.8925 150.825 38.2544V53H145.367V17.5723H150.825V29.6847C151.751 28.5676 152.916 27.7059 154.32 27.0994C155.756 26.493 157.32 26.1898 159.012 26.1898ZM200.204 26.6207L184.022 65.3997H178.373L183.735 52.5691L173.346 26.6207H179.426L186.847 46.7283L194.555 26.6207H200.204ZM209.781 30.4507C210.579 29.1102 211.632 28.0729 212.941 27.3388C214.281 26.5728 215.861 26.1898 217.68 26.1898V31.8391H216.292C214.154 31.8391 212.526 32.3817 211.409 33.4669C210.323 34.552 209.781 36.4351 209.781 39.1162V53H204.323V26.6207H209.781V30.4507ZM234.139 53.4309C231.65 53.4309 229.4 52.8723 227.389 51.7552C225.378 50.6062 223.798 49.0104 222.649 46.9677C221.5 44.8931 220.926 42.4993 220.926 39.7864C220.926 37.1054 221.516 34.7276 222.697 32.653C223.878 30.5784 225.49 28.9825 227.533 27.8655C229.575 26.7484 231.857 26.1898 234.379 26.1898C236.9 26.1898 239.182 26.7484 241.225 27.8655C243.268 28.9825 244.879 30.5784 246.06 32.653C247.241 34.7276 247.832 37.1054 247.832 39.7864C247.832 42.4674 247.225 44.8452 246.012 46.9198C244.8 48.9944 243.14 50.6062 241.033 51.7552C238.959 52.8723 236.661 53.4309 234.139 53.4309ZM234.139 48.6912C235.544 48.6912 236.852 48.3561 238.065 47.6858C239.31 47.0156 240.315 46.0102 241.081 44.6697C241.847 43.3292 242.23 41.7014 242.23 39.7864C242.23 37.8714 241.863 36.2596 241.129 34.951C240.395 33.6105 239.422 32.6051 238.209 31.9349C236.996 31.2646 235.687 30.9295 234.283 30.9295C232.879 30.9295 231.57 31.2646 230.357 31.9349C229.176 32.6051 228.235 33.6105 227.533 34.951C226.83 36.2596 226.479 37.8714 226.479 39.7864C226.479 42.627 227.197 44.8293 228.634 46.3932C230.102 47.9252 231.937 48.6912 234.139 48.6912Z" fill="white"/>
<mask id="mask0_2202_94" style="mask-type:alpha" maskUnits="userSpaceOnUse" x="2" y="14" width="39" height="43">
<path d="M21.5 14L40.1195 24.75V46.25L21.5 57L2.88045 46.25V24.75L21.5 14Z" fill="#DBEAFE"/>
</mask>
<g mask="url(#mask0_2202_94)">
<path d="M21.5 14L40.1195 24.75V46.25L21.5 57L2.88045 46.25V24.75L21.5 14Z" fill="#818181"/>
<path d="M21.5 35.5L2.85547 46.2644L2.85547 24.7356L21.5 35.5Z" fill="#5E5E5E"/>
<path d="M21.4977 35.5L21.4977 57.0289L2.85317 46.2644L21.4977 35.5Z" fill="#3C3C3C"/>
<path d="M21.499 57.0269L21.499 35.498L40.1435 46.2624L21.499 57.0269Z" fill="black"/>
</g>
</svg>
