<svg width="200" height="48" viewBox="0 0 200 48" fill="none" xmlns="http://www.w3.org/2000/svg">
<path d="M86.16 12.76V35H82.512V25.272H72.048V35H68.4V12.76H72.048V22.296H82.512V12.76H86.16ZM89.7465 26.104C89.7465 24.3333 90.1092 22.7653 90.8345 21.4C91.5812 20.0347 92.5838 18.9787 93.8425 18.232C95.1225 17.464 96.5305 17.08 98.0665 17.08C99.4532 17.08 100.659 17.3573 101.683 17.912C102.728 18.4453 103.56 19.1173 104.179 19.928V17.368H107.859V35H104.179V32.376C103.56 33.208 102.717 33.9013 101.651 34.456C100.584 35.0107 99.3678 35.288 98.0025 35.288C96.4878 35.288 95.1012 34.904 93.8425 34.136C92.5838 33.3467 91.5812 32.2587 90.8345 30.872C90.1092 29.464 89.7465 27.8747 89.7465 26.104ZM104.179 26.168C104.179 24.952 103.923 23.896 103.411 23C102.92 22.104 102.269 21.4213 101.459 20.952C100.648 20.4827 99.7732 20.248 98.8345 20.248C97.8958 20.248 97.0212 20.4827 96.2105 20.952C95.3998 21.4 94.7385 22.072 94.2265 22.968C93.7358 23.8427 93.4905 24.888 93.4905 26.104C93.4905 27.32 93.7358 28.3867 94.2265 29.304C94.7385 30.2213 95.3998 30.9253 96.2105 31.416C97.0425 31.8853 97.9172 32.12 98.8345 32.12C99.7732 32.12 100.648 31.8853 101.459 31.416C102.269 30.9467 102.92 30.264 103.411 29.368C103.923 28.4507 104.179 27.384 104.179 26.168ZM119.05 35.288C117.663 35.288 116.415 35.0427 115.306 34.552C114.218 34.04 113.354 33.3573 112.714 32.504C112.074 31.6293 111.733 30.6587 111.69 29.592H115.466C115.53 30.3387 115.882 30.968 116.522 31.48C117.183 31.9707 118.005 32.216 118.986 32.216C120.01 32.216 120.799 32.024 121.354 31.64C121.93 31.2347 122.218 30.7227 122.218 30.104C122.218 29.4427 121.898 28.952 121.258 28.632C120.639 28.312 119.647 27.96 118.282 27.576C116.959 27.2133 115.882 26.8613 115.05 26.52C114.218 26.1787 113.493 25.656 112.874 24.952C112.277 24.248 111.978 23.32 111.978 22.168C111.978 21.2293 112.255 20.376 112.81 19.608C113.365 18.8187 114.154 18.2 115.178 17.752C116.223 17.304 117.418 17.08 118.762 17.08C120.767 17.08 122.378 17.592 123.594 18.616C124.831 19.6187 125.493 20.9947 125.578 22.744H121.93C121.866 21.9547 121.546 21.3253 120.97 20.856C120.394 20.3867 119.615 20.152 118.634 20.152C117.674 20.152 116.938 20.3333 116.426 20.696C115.914 21.0587 115.658 21.5387 115.658 22.136C115.658 22.6053 115.829 23 116.17 23.32C116.511 23.64 116.927 23.896 117.418 24.088C117.909 24.2587 118.634 24.4827 119.594 24.76C120.874 25.1013 121.919 25.4533 122.73 25.816C123.562 26.1573 124.277 26.6693 124.874 27.352C125.471 28.0347 125.781 28.9413 125.802 30.072C125.802 31.0747 125.525 31.9707 124.97 32.76C124.415 33.5493 123.626 34.168 122.602 34.616C121.599 35.064 120.415 35.288 119.05 35.288ZM138.864 17.08C140.208 17.08 141.402 17.368 142.448 17.944C143.514 18.52 144.346 19.3733 144.944 20.504C145.562 21.6347 145.872 23 145.872 24.6V35H142.256V25.144C142.256 23.5653 141.861 22.36 141.072 21.528C140.282 20.6747 139.205 20.248 137.84 20.248C136.474 20.248 135.386 20.6747 134.576 21.528C133.786 22.36 133.392 23.5653 133.392 25.144V35H129.744V11.32H133.392V19.416C134.01 18.6693 134.789 18.0933 135.728 17.688C136.688 17.2827 137.733 17.08 138.864 17.08ZM166.397 17.368L155.581 43.288H151.805L155.389 34.712L148.445 17.368H152.509L157.469 30.808L162.621 17.368H166.397ZM172.798 19.928C173.331 19.032 174.035 18.3387 174.91 17.848C175.806 17.336 176.862 17.08 178.078 17.08V20.856H177.15C175.721 20.856 174.633 21.2187 173.886 21.944C173.161 22.6693 172.798 23.928 172.798 25.72V35H169.15V17.368H172.798V19.928ZM189.079 35.288C187.415 35.288 185.911 34.9147 184.567 34.168C183.223 33.4 182.167 32.3333 181.399 30.968C180.631 29.5813 180.247 27.9813 180.247 26.168C180.247 24.376 180.642 22.7867 181.431 21.4C182.221 20.0133 183.298 18.9467 184.663 18.2C186.029 17.4533 187.554 17.08 189.239 17.08C190.925 17.08 192.45 17.4533 193.815 18.2C195.181 18.9467 196.258 20.0133 197.047 21.4C197.837 22.7867 198.231 24.376 198.231 26.168C198.231 27.96 197.826 29.5493 197.015 30.936C196.205 32.3227 195.095 33.4 193.687 34.168C192.301 34.9147 190.765 35.288 189.079 35.288ZM189.079 32.12C190.018 32.12 190.893 31.896 191.703 31.448C192.535 31 193.207 30.328 193.719 29.432C194.231 28.536 194.487 27.448 194.487 26.168C194.487 24.888 194.242 23.8107 193.751 22.936C193.261 22.04 192.61 21.368 191.799 20.92C190.989 20.472 190.114 20.248 189.175 20.248C188.237 20.248 187.362 20.472 186.551 20.92C185.762 21.368 185.133 22.04 184.663 22.936C184.194 23.8107 183.959 24.888 183.959 26.168C183.959 28.0667 184.439 29.5387 185.399 30.584C186.381 31.608 187.607 32.12 189.079 32.12Z" fill="white"/>
<mask id="mask0_2203_28" style="mask-type:alpha" maskUnits="userSpaceOnUse" x="2" y="2" width="39" height="43">
<path d="M21.5 2L40.1195 12.75V34.25L21.5 45L2.88045 34.25V12.75L21.5 2Z" fill="#DBEAFE"/>
</mask>
<g mask="url(#mask0_2203_28)">
<path d="M21.5 2L40.1195 12.75V34.25L21.5 45L2.88045 34.25V12.75L21.5 2Z" fill="#818181"/>
<path d="M21.5 23.5L2.85547 34.2644L2.85547 12.7356L21.5 23.5Z" fill="#5E5E5E"/>
<path d="M21.4977 23.5L21.4977 45.0289L2.85317 34.2644L21.4977 23.5Z" fill="#3C3C3C"/>
<path d="M21.499 45.0269L21.499 23.498L40.1435 34.2624L21.499 45.0269Z" fill="black"/>
</g>
</svg>
